<svg width="21" height="21" viewBox="0 0 21 21" fill="none" xmlns="http://www.w3.org/2000/svg">
<path d="M11.2035 3.58203H9.87012V11.0033L14.6873 13.2928L15.2597 12.0886L11.2035 10.1607V3.58203Z" fill="black"/>
<path d="M10.557 0.269531C5.03417 0.269531 0.557007 4.7467 0.557007 10.2695C0.557007 15.7924 5.03417 20.2695 10.557 20.2695C16.0798 20.2695 20.557 15.7924 20.557 10.2695C20.557 4.7467 16.0798 0.269531 10.557 0.269531ZM10.557 18.9362C5.77055 18.9362 1.89034 15.056 1.89034 10.2695C1.89034 5.48307 5.77055 1.60286 10.557 1.60286C15.3435 1.60286 19.2237 5.48307 19.2237 10.2695C19.2237 15.056 15.3435 18.9362 10.557 18.9362Z" fill="black"/>
</svg>
